<mxfile host="app.diagrams.net" modified="2024-05-27T08:46:12.456Z" agent="Mozilla/5.0 (Windows NT 10.0; Win64; x64) AppleWebKit/537.36 (KHTML, like Gecko) Chrome/124.0.0.0 Safari/537.36" etag="RDUtX1kIw24KYFD793X-" version="24.4.4" type="device">
  <diagram name="Página-1" id="ZApUzqf8jSkPj4F7qpwR">
    <mxGraphModel dx="4700" dy="2257" grid="1" gridSize="10" guides="1" tooltips="1" connect="1" arrows="1" fold="1" page="0" pageScale="1" pageWidth="827" pageHeight="1169" math="0" shadow="0">
      <root>
        <mxCell id="0" />
        <mxCell id="1" parent="0" />
        <mxCell id="VTEPdqiXD7RpA5JGVj0d-16" style="edgeStyle=orthogonalEdgeStyle;rounded=0;orthogonalLoop=1;jettySize=auto;html=1;exitX=0.5;exitY=1;exitDx=0;exitDy=0;entryX=0.5;entryY=0;entryDx=0;entryDy=0;" edge="1" parent="1" target="VTEPdqiXD7RpA5JGVj0d-2">
          <mxGeometry relative="1" as="geometry">
            <mxPoint x="-320" y="-250" as="sourcePoint" />
          </mxGeometry>
        </mxCell>
        <mxCell id="VTEPdqiXD7RpA5JGVj0d-17" style="edgeStyle=orthogonalEdgeStyle;rounded=0;orthogonalLoop=1;jettySize=auto;html=1;exitX=0.5;exitY=1;exitDx=0;exitDy=0;entryX=0.5;entryY=0;entryDx=0;entryDy=0;" edge="1" parent="1" source="VTEPdqiXD7RpA5JGVj0d-2" target="VTEPdqiXD7RpA5JGVj0d-3">
          <mxGeometry relative="1" as="geometry" />
        </mxCell>
        <mxCell id="VTEPdqiXD7RpA5JGVj0d-2" value="Form1 Constructor" style="rounded=0;whiteSpace=wrap;html=1;fillColor=#dae8fc;strokeColor=#6c8ebf;" vertex="1" parent="1">
          <mxGeometry x="-402.5" y="-230" width="165" height="60" as="geometry" />
        </mxCell>
        <mxCell id="VTEPdqiXD7RpA5JGVj0d-18" style="edgeStyle=orthogonalEdgeStyle;rounded=0;orthogonalLoop=1;jettySize=auto;html=1;exitX=0.5;exitY=1;exitDx=0;exitDy=0;entryX=0.5;entryY=0;entryDx=0;entryDy=0;" edge="1" parent="1" source="VTEPdqiXD7RpA5JGVj0d-3" target="VTEPdqiXD7RpA5JGVj0d-5">
          <mxGeometry relative="1" as="geometry" />
        </mxCell>
        <mxCell id="VTEPdqiXD7RpA5JGVj0d-19" style="edgeStyle=orthogonalEdgeStyle;rounded=0;orthogonalLoop=1;jettySize=auto;html=1;exitX=0.25;exitY=1;exitDx=0;exitDy=0;" edge="1" parent="1" source="VTEPdqiXD7RpA5JGVj0d-3" target="VTEPdqiXD7RpA5JGVj0d-4">
          <mxGeometry relative="1" as="geometry">
            <Array as="points">
              <mxPoint x="-362" y="-50" />
              <mxPoint x="-560" y="-50" />
            </Array>
          </mxGeometry>
        </mxCell>
        <mxCell id="VTEPdqiXD7RpA5JGVj0d-20" style="edgeStyle=orthogonalEdgeStyle;rounded=0;orthogonalLoop=1;jettySize=auto;html=1;exitX=0.75;exitY=1;exitDx=0;exitDy=0;" edge="1" parent="1" source="VTEPdqiXD7RpA5JGVj0d-3" target="VTEPdqiXD7RpA5JGVj0d-6">
          <mxGeometry relative="1" as="geometry">
            <Array as="points">
              <mxPoint x="-277" y="-50" />
              <mxPoint x="-55" y="-50" />
            </Array>
          </mxGeometry>
        </mxCell>
        <mxCell id="VTEPdqiXD7RpA5JGVj0d-3" value="Form1_Load Event Handler" style="rounded=0;whiteSpace=wrap;html=1;fillColor=#dae8fc;strokeColor=#6c8ebf;" vertex="1" parent="1">
          <mxGeometry x="-405" y="-130" width="170" height="60" as="geometry" />
        </mxCell>
        <mxCell id="VTEPdqiXD7RpA5JGVj0d-21" style="edgeStyle=orthogonalEdgeStyle;rounded=0;orthogonalLoop=1;jettySize=auto;html=1;exitX=0.5;exitY=1;exitDx=0;exitDy=0;entryX=0.5;entryY=0;entryDx=0;entryDy=0;" edge="1" parent="1" source="VTEPdqiXD7RpA5JGVj0d-4">
          <mxGeometry relative="1" as="geometry">
            <mxPoint x="-595" y="90" as="targetPoint" />
          </mxGeometry>
        </mxCell>
        <mxCell id="VTEPdqiXD7RpA5JGVj0d-4" value="Create Logs Directory and File" style="rounded=0;whiteSpace=wrap;html=1;fillColor=#dae8fc;strokeColor=#6c8ebf;" vertex="1" parent="1">
          <mxGeometry x="-680" y="-20" width="170" height="60" as="geometry" />
        </mxCell>
        <mxCell id="VTEPdqiXD7RpA5JGVj0d-26" style="edgeStyle=orthogonalEdgeStyle;rounded=0;orthogonalLoop=1;jettySize=auto;html=1;exitX=0.5;exitY=1;exitDx=0;exitDy=0;entryX=0.5;entryY=0;entryDx=0;entryDy=0;" edge="1" parent="1" source="VTEPdqiXD7RpA5JGVj0d-5" target="VTEPdqiXD7RpA5JGVj0d-10">
          <mxGeometry relative="1" as="geometry" />
        </mxCell>
        <mxCell id="VTEPdqiXD7RpA5JGVj0d-5" value="Load Data from Database" style="rounded=0;whiteSpace=wrap;html=1;fillColor=#dae8fc;strokeColor=#6c8ebf;" vertex="1" parent="1">
          <mxGeometry x="-406" y="-20" width="170" height="60" as="geometry" />
        </mxCell>
        <mxCell id="VTEPdqiXD7RpA5JGVj0d-33" style="edgeStyle=orthogonalEdgeStyle;rounded=0;orthogonalLoop=1;jettySize=auto;html=1;exitX=0.5;exitY=1;exitDx=0;exitDy=0;" edge="1" parent="1" source="VTEPdqiXD7RpA5JGVj0d-6" target="VTEPdqiXD7RpA5JGVj0d-31">
          <mxGeometry relative="1" as="geometry" />
        </mxCell>
        <mxCell id="VTEPdqiXD7RpA5JGVj0d-6" value="Read Logs File" style="rounded=0;whiteSpace=wrap;html=1;fillColor=#dae8fc;strokeColor=#6c8ebf;" vertex="1" parent="1">
          <mxGeometry x="-140" y="-20" width="170" height="60" as="geometry" />
        </mxCell>
        <mxCell id="VTEPdqiXD7RpA5JGVj0d-24" style="edgeStyle=orthogonalEdgeStyle;rounded=0;orthogonalLoop=1;jettySize=auto;html=1;exitX=1;exitY=1;exitDx=0;exitDy=0;entryX=0.5;entryY=0;entryDx=0;entryDy=0;" edge="1" parent="1" source="VTEPdqiXD7RpA5JGVj0d-87" target="VTEPdqiXD7RpA5JGVj0d-9">
          <mxGeometry relative="1" as="geometry">
            <mxPoint x="-552.5" y="150" as="sourcePoint" />
            <Array as="points">
              <mxPoint x="-540" y="170" />
              <mxPoint x="-505" y="170" />
            </Array>
          </mxGeometry>
        </mxCell>
        <mxCell id="VTEPdqiXD7RpA5JGVj0d-89" value="Sim" style="edgeLabel;html=1;align=center;verticalAlign=middle;resizable=0;points=[];" vertex="1" connectable="0" parent="VTEPdqiXD7RpA5JGVj0d-24">
          <mxGeometry x="-0.0193" relative="1" as="geometry">
            <mxPoint as="offset" />
          </mxGeometry>
        </mxCell>
        <mxCell id="VTEPdqiXD7RpA5JGVj0d-30" style="edgeStyle=orthogonalEdgeStyle;rounded=0;orthogonalLoop=1;jettySize=auto;html=1;exitX=0;exitY=1;exitDx=0;exitDy=0;entryX=0.25;entryY=0;entryDx=0;entryDy=0;" edge="1" parent="1" source="VTEPdqiXD7RpA5JGVj0d-87" target="VTEPdqiXD7RpA5JGVj0d-4">
          <mxGeometry relative="1" as="geometry">
            <mxPoint x="-705" y="250.00000000000023" as="sourcePoint" />
            <Array as="points">
              <mxPoint x="-650" y="220" />
              <mxPoint x="-820" y="220" />
              <mxPoint x="-820" y="-50" />
              <mxPoint x="-637" y="-50" />
            </Array>
          </mxGeometry>
        </mxCell>
        <mxCell id="VTEPdqiXD7RpA5JGVj0d-90" value="Não" style="edgeLabel;html=1;align=center;verticalAlign=middle;resizable=0;points=[];" vertex="1" connectable="0" parent="VTEPdqiXD7RpA5JGVj0d-30">
          <mxGeometry x="-0.547" relative="1" as="geometry">
            <mxPoint as="offset" />
          </mxGeometry>
        </mxCell>
        <mxCell id="VTEPdqiXD7RpA5JGVj0d-9" value="Create New Log File" style="rounded=0;whiteSpace=wrap;html=1;fillColor=#dae8fc;strokeColor=#6c8ebf;" vertex="1" parent="1">
          <mxGeometry x="-590" y="190" width="170" height="60" as="geometry" />
        </mxCell>
        <mxCell id="VTEPdqiXD7RpA5JGVj0d-27" style="edgeStyle=orthogonalEdgeStyle;rounded=0;orthogonalLoop=1;jettySize=auto;html=1;exitX=0.5;exitY=1;exitDx=0;exitDy=0;entryX=0.5;entryY=0;entryDx=0;entryDy=0;" edge="1" parent="1" source="VTEPdqiXD7RpA5JGVj0d-10" target="VTEPdqiXD7RpA5JGVj0d-13">
          <mxGeometry relative="1" as="geometry" />
        </mxCell>
        <mxCell id="VTEPdqiXD7RpA5JGVj0d-10" value="Open DB Connection" style="rounded=0;whiteSpace=wrap;html=1;fillColor=#dae8fc;strokeColor=#6c8ebf;" vertex="1" parent="1">
          <mxGeometry x="-406" y="90" width="170" height="60" as="geometry" />
        </mxCell>
        <mxCell id="VTEPdqiXD7RpA5JGVj0d-28" style="edgeStyle=orthogonalEdgeStyle;rounded=0;orthogonalLoop=1;jettySize=auto;html=1;exitX=0.5;exitY=1;exitDx=0;exitDy=0;entryX=0.5;entryY=0;entryDx=0;entryDy=0;" edge="1" parent="1" source="VTEPdqiXD7RpA5JGVj0d-13" target="VTEPdqiXD7RpA5JGVj0d-14">
          <mxGeometry relative="1" as="geometry" />
        </mxCell>
        <mxCell id="VTEPdqiXD7RpA5JGVj0d-13" value="Execute SELECT Query" style="rounded=0;whiteSpace=wrap;html=1;fillColor=#dae8fc;strokeColor=#6c8ebf;" vertex="1" parent="1">
          <mxGeometry x="-406.5" y="190" width="170" height="60" as="geometry" />
        </mxCell>
        <mxCell id="VTEPdqiXD7RpA5JGVj0d-29" style="edgeStyle=orthogonalEdgeStyle;rounded=0;orthogonalLoop=1;jettySize=auto;html=1;exitX=0.5;exitY=1;exitDx=0;exitDy=0;entryX=0.5;entryY=0;entryDx=0;entryDy=0;" edge="1" parent="1" source="VTEPdqiXD7RpA5JGVj0d-14" target="VTEPdqiXD7RpA5JGVj0d-15">
          <mxGeometry relative="1" as="geometry" />
        </mxCell>
        <mxCell id="VTEPdqiXD7RpA5JGVj0d-14" value="Load Data into DataGridView" style="rounded=0;whiteSpace=wrap;html=1;fillColor=#dae8fc;strokeColor=#6c8ebf;" vertex="1" parent="1">
          <mxGeometry x="-406.5" y="290" width="170" height="60" as="geometry" />
        </mxCell>
        <mxCell id="VTEPdqiXD7RpA5JGVj0d-15" value="Close DB Connection" style="rounded=0;whiteSpace=wrap;html=1;fillColor=#dae8fc;strokeColor=#6c8ebf;" vertex="1" parent="1">
          <mxGeometry x="-406.5" y="380" width="170" height="60" as="geometry" />
        </mxCell>
        <mxCell id="VTEPdqiXD7RpA5JGVj0d-34" style="edgeStyle=orthogonalEdgeStyle;rounded=0;orthogonalLoop=1;jettySize=auto;html=1;exitX=0.5;exitY=1;exitDx=0;exitDy=0;entryX=0.5;entryY=0;entryDx=0;entryDy=0;" edge="1" parent="1" source="VTEPdqiXD7RpA5JGVj0d-31" target="VTEPdqiXD7RpA5JGVj0d-32">
          <mxGeometry relative="1" as="geometry" />
        </mxCell>
        <mxCell id="VTEPdqiXD7RpA5JGVj0d-31" value="Read Logs File Content" style="rounded=0;whiteSpace=wrap;html=1;fillColor=#dae8fc;strokeColor=#6c8ebf;" vertex="1" parent="1">
          <mxGeometry x="-140" y="190" width="170" height="60" as="geometry" />
        </mxCell>
        <mxCell id="VTEPdqiXD7RpA5JGVj0d-38" style="edgeStyle=orthogonalEdgeStyle;rounded=0;orthogonalLoop=1;jettySize=auto;html=1;exitX=0.25;exitY=1;exitDx=0;exitDy=0;entryX=0.5;entryY=0;entryDx=0;entryDy=0;" edge="1" parent="1" source="VTEPdqiXD7RpA5JGVj0d-32">
          <mxGeometry relative="1" as="geometry">
            <mxPoint x="-322.5" y="510" as="targetPoint" />
          </mxGeometry>
        </mxCell>
        <mxCell id="VTEPdqiXD7RpA5JGVj0d-39" style="edgeStyle=orthogonalEdgeStyle;rounded=0;orthogonalLoop=1;jettySize=auto;html=1;exitX=0.5;exitY=1;exitDx=0;exitDy=0;entryX=0.5;entryY=0;entryDx=0;entryDy=0;" edge="1" parent="1" source="VTEPdqiXD7RpA5JGVj0d-32">
          <mxGeometry relative="1" as="geometry">
            <mxPoint x="-55" y="510" as="targetPoint" />
          </mxGeometry>
        </mxCell>
        <mxCell id="VTEPdqiXD7RpA5JGVj0d-40" style="edgeStyle=orthogonalEdgeStyle;rounded=0;orthogonalLoop=1;jettySize=auto;html=1;exitX=0.75;exitY=1;exitDx=0;exitDy=0;entryX=0.5;entryY=0;entryDx=0;entryDy=0;" edge="1" parent="1" source="VTEPdqiXD7RpA5JGVj0d-32">
          <mxGeometry relative="1" as="geometry">
            <mxPoint x="215" y="510" as="targetPoint" />
          </mxGeometry>
        </mxCell>
        <mxCell id="VTEPdqiXD7RpA5JGVj0d-32" value="Display Logs in RichTextBox" style="rounded=0;whiteSpace=wrap;html=1;fillColor=#dae8fc;strokeColor=#6c8ebf;" vertex="1" parent="1">
          <mxGeometry x="-140" y="380" width="170" height="60" as="geometry" />
        </mxCell>
        <mxCell id="VTEPdqiXD7RpA5JGVj0d-59" style="edgeStyle=orthogonalEdgeStyle;rounded=0;orthogonalLoop=1;jettySize=auto;html=1;exitX=0.5;exitY=1;exitDx=0;exitDy=0;entryX=0.5;entryY=0;entryDx=0;entryDy=0;" edge="1" parent="1" target="VTEPdqiXD7RpA5JGVj0d-41">
          <mxGeometry relative="1" as="geometry">
            <mxPoint x="-322.5" y="570" as="sourcePoint" />
          </mxGeometry>
        </mxCell>
        <mxCell id="VTEPdqiXD7RpA5JGVj0d-60" style="edgeStyle=orthogonalEdgeStyle;rounded=0;orthogonalLoop=1;jettySize=auto;html=1;exitX=0.5;exitY=1;exitDx=0;exitDy=0;entryX=0.5;entryY=0;entryDx=0;entryDy=0;" edge="1" parent="1" target="VTEPdqiXD7RpA5JGVj0d-47">
          <mxGeometry relative="1" as="geometry">
            <mxPoint x="-55" y="570" as="sourcePoint" />
          </mxGeometry>
        </mxCell>
        <mxCell id="VTEPdqiXD7RpA5JGVj0d-61" style="edgeStyle=orthogonalEdgeStyle;rounded=0;orthogonalLoop=1;jettySize=auto;html=1;exitX=0.5;exitY=1;exitDx=0;exitDy=0;" edge="1" parent="1" target="VTEPdqiXD7RpA5JGVj0d-53">
          <mxGeometry relative="1" as="geometry">
            <mxPoint x="215" y="570" as="sourcePoint" />
          </mxGeometry>
        </mxCell>
        <mxCell id="VTEPdqiXD7RpA5JGVj0d-62" style="edgeStyle=orthogonalEdgeStyle;rounded=0;orthogonalLoop=1;jettySize=auto;html=1;exitX=0.5;exitY=1;exitDx=0;exitDy=0;entryX=0.5;entryY=0;entryDx=0;entryDy=0;" edge="1" parent="1" source="VTEPdqiXD7RpA5JGVj0d-41" target="VTEPdqiXD7RpA5JGVj0d-42">
          <mxGeometry relative="1" as="geometry" />
        </mxCell>
        <mxCell id="VTEPdqiXD7RpA5JGVj0d-41" value="Open DB Connection" style="rounded=0;whiteSpace=wrap;html=1;fillColor=#dae8fc;strokeColor=#6c8ebf;" vertex="1" parent="1">
          <mxGeometry x="-407.5" y="620" width="170" height="60" as="geometry" />
        </mxCell>
        <mxCell id="VTEPdqiXD7RpA5JGVj0d-63" style="edgeStyle=orthogonalEdgeStyle;rounded=0;orthogonalLoop=1;jettySize=auto;html=1;exitX=0.5;exitY=1;exitDx=0;exitDy=0;entryX=0.5;entryY=0;entryDx=0;entryDy=0;" edge="1" parent="1" source="VTEPdqiXD7RpA5JGVj0d-42" target="VTEPdqiXD7RpA5JGVj0d-43">
          <mxGeometry relative="1" as="geometry" />
        </mxCell>
        <mxCell id="VTEPdqiXD7RpA5JGVj0d-42" value="Get Input Values" style="rounded=0;whiteSpace=wrap;html=1;fillColor=#dae8fc;strokeColor=#6c8ebf;" vertex="1" parent="1">
          <mxGeometry x="-407.5" y="730" width="170" height="60" as="geometry" />
        </mxCell>
        <mxCell id="VTEPdqiXD7RpA5JGVj0d-64" style="edgeStyle=orthogonalEdgeStyle;rounded=0;orthogonalLoop=1;jettySize=auto;html=1;exitX=0.5;exitY=1;exitDx=0;exitDy=0;entryX=0.5;entryY=0;entryDx=0;entryDy=0;" edge="1" parent="1" source="VTEPdqiXD7RpA5JGVj0d-43" target="VTEPdqiXD7RpA5JGVj0d-44">
          <mxGeometry relative="1" as="geometry" />
        </mxCell>
        <mxCell id="VTEPdqiXD7RpA5JGVj0d-43" value="Execute UPDATE Query" style="rounded=0;whiteSpace=wrap;html=1;fillColor=#dae8fc;strokeColor=#6c8ebf;" vertex="1" parent="1">
          <mxGeometry x="-407.5" y="840" width="170" height="60" as="geometry" />
        </mxCell>
        <mxCell id="VTEPdqiXD7RpA5JGVj0d-65" style="edgeStyle=orthogonalEdgeStyle;rounded=0;orthogonalLoop=1;jettySize=auto;html=1;exitX=0.5;exitY=1;exitDx=0;exitDy=0;entryX=0.5;entryY=0;entryDx=0;entryDy=0;" edge="1" parent="1" source="VTEPdqiXD7RpA5JGVj0d-44" target="VTEPdqiXD7RpA5JGVj0d-45">
          <mxGeometry relative="1" as="geometry" />
        </mxCell>
        <mxCell id="VTEPdqiXD7RpA5JGVj0d-44" value="Load Updated Data into DataGridView" style="rounded=0;whiteSpace=wrap;html=1;fillColor=#dae8fc;strokeColor=#6c8ebf;" vertex="1" parent="1">
          <mxGeometry x="-436" y="950" width="227.5" height="60" as="geometry" />
        </mxCell>
        <mxCell id="VTEPdqiXD7RpA5JGVj0d-66" style="edgeStyle=orthogonalEdgeStyle;rounded=0;orthogonalLoop=1;jettySize=auto;html=1;exitX=0.5;exitY=1;exitDx=0;exitDy=0;entryX=0.5;entryY=0;entryDx=0;entryDy=0;" edge="1" parent="1" source="VTEPdqiXD7RpA5JGVj0d-45" target="VTEPdqiXD7RpA5JGVj0d-46">
          <mxGeometry relative="1" as="geometry" />
        </mxCell>
        <mxCell id="VTEPdqiXD7RpA5JGVj0d-45" value="Log UPDATE Operation" style="rounded=0;whiteSpace=wrap;html=1;fillColor=#dae8fc;strokeColor=#6c8ebf;" vertex="1" parent="1">
          <mxGeometry x="-407.5" y="1060" width="170" height="60" as="geometry" />
        </mxCell>
        <mxCell id="VTEPdqiXD7RpA5JGVj0d-79" style="edgeStyle=orthogonalEdgeStyle;rounded=0;orthogonalLoop=1;jettySize=auto;html=1;exitX=0.5;exitY=1;exitDx=0;exitDy=0;entryX=0.5;entryY=0;entryDx=0;entryDy=0;" edge="1" parent="1" source="VTEPdqiXD7RpA5JGVj0d-46" target="VTEPdqiXD7RpA5JGVj0d-77">
          <mxGeometry relative="1" as="geometry" />
        </mxCell>
        <mxCell id="VTEPdqiXD7RpA5JGVj0d-46" value="Close DB Connection" style="rounded=0;whiteSpace=wrap;html=1;fillColor=#dae8fc;strokeColor=#6c8ebf;" vertex="1" parent="1">
          <mxGeometry x="-407" y="1170" width="170" height="60" as="geometry" />
        </mxCell>
        <mxCell id="VTEPdqiXD7RpA5JGVj0d-67" style="edgeStyle=orthogonalEdgeStyle;rounded=0;orthogonalLoop=1;jettySize=auto;html=1;exitX=0.5;exitY=1;exitDx=0;exitDy=0;entryX=0.5;entryY=0;entryDx=0;entryDy=0;" edge="1" parent="1" source="VTEPdqiXD7RpA5JGVj0d-47" target="VTEPdqiXD7RpA5JGVj0d-48">
          <mxGeometry relative="1" as="geometry" />
        </mxCell>
        <mxCell id="VTEPdqiXD7RpA5JGVj0d-47" value="Open DB Connection" style="rounded=0;whiteSpace=wrap;html=1;fillColor=#dae8fc;strokeColor=#6c8ebf;" vertex="1" parent="1">
          <mxGeometry x="-140.25" y="620" width="170" height="60" as="geometry" />
        </mxCell>
        <mxCell id="VTEPdqiXD7RpA5JGVj0d-70" style="edgeStyle=orthogonalEdgeStyle;rounded=0;orthogonalLoop=1;jettySize=auto;html=1;exitX=0.5;exitY=1;exitDx=0;exitDy=0;entryX=0.5;entryY=0;entryDx=0;entryDy=0;" edge="1" parent="1" source="VTEPdqiXD7RpA5JGVj0d-48" target="VTEPdqiXD7RpA5JGVj0d-49">
          <mxGeometry relative="1" as="geometry" />
        </mxCell>
        <mxCell id="VTEPdqiXD7RpA5JGVj0d-48" value="Get Input Values" style="rounded=0;whiteSpace=wrap;html=1;fillColor=#dae8fc;strokeColor=#6c8ebf;" vertex="1" parent="1">
          <mxGeometry x="-140.25" y="730" width="170" height="60" as="geometry" />
        </mxCell>
        <mxCell id="VTEPdqiXD7RpA5JGVj0d-71" style="edgeStyle=orthogonalEdgeStyle;rounded=0;orthogonalLoop=1;jettySize=auto;html=1;exitX=0.5;exitY=1;exitDx=0;exitDy=0;entryX=0.5;entryY=0;entryDx=0;entryDy=0;" edge="1" parent="1" source="VTEPdqiXD7RpA5JGVj0d-49" target="VTEPdqiXD7RpA5JGVj0d-50">
          <mxGeometry relative="1" as="geometry" />
        </mxCell>
        <mxCell id="VTEPdqiXD7RpA5JGVj0d-49" value="Execute INSERT Query" style="rounded=0;whiteSpace=wrap;html=1;fillColor=#dae8fc;strokeColor=#6c8ebf;" vertex="1" parent="1">
          <mxGeometry x="-140.25" y="840" width="170" height="60" as="geometry" />
        </mxCell>
        <mxCell id="VTEPdqiXD7RpA5JGVj0d-74" style="edgeStyle=orthogonalEdgeStyle;rounded=0;orthogonalLoop=1;jettySize=auto;html=1;exitX=0.5;exitY=1;exitDx=0;exitDy=0;entryX=0.5;entryY=0;entryDx=0;entryDy=0;" edge="1" parent="1" source="VTEPdqiXD7RpA5JGVj0d-50" target="VTEPdqiXD7RpA5JGVj0d-51">
          <mxGeometry relative="1" as="geometry" />
        </mxCell>
        <mxCell id="VTEPdqiXD7RpA5JGVj0d-50" value="Load Updated Data into DataGridView" style="rounded=0;whiteSpace=wrap;html=1;fillColor=#dae8fc;strokeColor=#6c8ebf;" vertex="1" parent="1">
          <mxGeometry x="-168.75" y="950" width="227.5" height="60" as="geometry" />
        </mxCell>
        <mxCell id="VTEPdqiXD7RpA5JGVj0d-75" style="edgeStyle=orthogonalEdgeStyle;rounded=0;orthogonalLoop=1;jettySize=auto;html=1;exitX=0.5;exitY=1;exitDx=0;exitDy=0;entryX=0.5;entryY=0;entryDx=0;entryDy=0;" edge="1" parent="1" source="VTEPdqiXD7RpA5JGVj0d-51" target="VTEPdqiXD7RpA5JGVj0d-52">
          <mxGeometry relative="1" as="geometry" />
        </mxCell>
        <mxCell id="VTEPdqiXD7RpA5JGVj0d-51" value="Log UPDATE Operation" style="rounded=0;whiteSpace=wrap;html=1;fillColor=#dae8fc;strokeColor=#6c8ebf;" vertex="1" parent="1">
          <mxGeometry x="-140.25" y="1060" width="170" height="60" as="geometry" />
        </mxCell>
        <mxCell id="VTEPdqiXD7RpA5JGVj0d-80" style="edgeStyle=orthogonalEdgeStyle;rounded=0;orthogonalLoop=1;jettySize=auto;html=1;exitX=0.5;exitY=1;exitDx=0;exitDy=0;" edge="1" parent="1" source="VTEPdqiXD7RpA5JGVj0d-52">
          <mxGeometry relative="1" as="geometry">
            <mxPoint x="-55" y="1330" as="targetPoint" />
          </mxGeometry>
        </mxCell>
        <mxCell id="VTEPdqiXD7RpA5JGVj0d-52" value="Close DB Connection" style="rounded=0;whiteSpace=wrap;html=1;fillColor=#dae8fc;strokeColor=#6c8ebf;" vertex="1" parent="1">
          <mxGeometry x="-140" y="1170" width="170" height="60" as="geometry" />
        </mxCell>
        <mxCell id="VTEPdqiXD7RpA5JGVj0d-68" style="edgeStyle=orthogonalEdgeStyle;rounded=0;orthogonalLoop=1;jettySize=auto;html=1;exitX=0.5;exitY=1;exitDx=0;exitDy=0;entryX=0.5;entryY=0;entryDx=0;entryDy=0;" edge="1" parent="1" source="VTEPdqiXD7RpA5JGVj0d-53" target="VTEPdqiXD7RpA5JGVj0d-54">
          <mxGeometry relative="1" as="geometry" />
        </mxCell>
        <mxCell id="VTEPdqiXD7RpA5JGVj0d-53" value="Open DB Connection" style="rounded=0;whiteSpace=wrap;html=1;fillColor=#dae8fc;strokeColor=#6c8ebf;" vertex="1" parent="1">
          <mxGeometry x="130.5" y="620" width="170" height="60" as="geometry" />
        </mxCell>
        <mxCell id="VTEPdqiXD7RpA5JGVj0d-69" style="edgeStyle=orthogonalEdgeStyle;rounded=0;orthogonalLoop=1;jettySize=auto;html=1;exitX=0.5;exitY=1;exitDx=0;exitDy=0;entryX=0.5;entryY=0;entryDx=0;entryDy=0;" edge="1" parent="1" source="VTEPdqiXD7RpA5JGVj0d-54" target="VTEPdqiXD7RpA5JGVj0d-55">
          <mxGeometry relative="1" as="geometry" />
        </mxCell>
        <mxCell id="VTEPdqiXD7RpA5JGVj0d-54" value="Get Input Values" style="rounded=0;whiteSpace=wrap;html=1;fillColor=#dae8fc;strokeColor=#6c8ebf;" vertex="1" parent="1">
          <mxGeometry x="130.5" y="730" width="170" height="60" as="geometry" />
        </mxCell>
        <mxCell id="VTEPdqiXD7RpA5JGVj0d-72" style="edgeStyle=orthogonalEdgeStyle;rounded=0;orthogonalLoop=1;jettySize=auto;html=1;exitX=0.5;exitY=1;exitDx=0;exitDy=0;" edge="1" parent="1" source="VTEPdqiXD7RpA5JGVj0d-55" target="VTEPdqiXD7RpA5JGVj0d-56">
          <mxGeometry relative="1" as="geometry" />
        </mxCell>
        <mxCell id="VTEPdqiXD7RpA5JGVj0d-55" value="Execute DELETE Query" style="rounded=0;whiteSpace=wrap;html=1;fillColor=#dae8fc;strokeColor=#6c8ebf;" vertex="1" parent="1">
          <mxGeometry x="130.5" y="840" width="170" height="60" as="geometry" />
        </mxCell>
        <mxCell id="VTEPdqiXD7RpA5JGVj0d-73" style="edgeStyle=orthogonalEdgeStyle;rounded=0;orthogonalLoop=1;jettySize=auto;html=1;exitX=0.5;exitY=1;exitDx=0;exitDy=0;entryX=0.5;entryY=0;entryDx=0;entryDy=0;" edge="1" parent="1" source="VTEPdqiXD7RpA5JGVj0d-56" target="VTEPdqiXD7RpA5JGVj0d-57">
          <mxGeometry relative="1" as="geometry" />
        </mxCell>
        <mxCell id="VTEPdqiXD7RpA5JGVj0d-56" value="Load Updated Data into DataGridView" style="rounded=0;whiteSpace=wrap;html=1;fillColor=#dae8fc;strokeColor=#6c8ebf;" vertex="1" parent="1">
          <mxGeometry x="102" y="950" width="227.5" height="60" as="geometry" />
        </mxCell>
        <mxCell id="VTEPdqiXD7RpA5JGVj0d-76" style="edgeStyle=orthogonalEdgeStyle;rounded=0;orthogonalLoop=1;jettySize=auto;html=1;exitX=0.5;exitY=1;exitDx=0;exitDy=0;entryX=0.5;entryY=0;entryDx=0;entryDy=0;" edge="1" parent="1" source="VTEPdqiXD7RpA5JGVj0d-57" target="VTEPdqiXD7RpA5JGVj0d-58">
          <mxGeometry relative="1" as="geometry" />
        </mxCell>
        <mxCell id="VTEPdqiXD7RpA5JGVj0d-57" value="Log UPDATE Operation" style="rounded=0;whiteSpace=wrap;html=1;fillColor=#dae8fc;strokeColor=#6c8ebf;" vertex="1" parent="1">
          <mxGeometry x="130.5" y="1060" width="170" height="60" as="geometry" />
        </mxCell>
        <mxCell id="VTEPdqiXD7RpA5JGVj0d-82" style="edgeStyle=orthogonalEdgeStyle;rounded=0;orthogonalLoop=1;jettySize=auto;html=1;exitX=0.5;exitY=1;exitDx=0;exitDy=0;entryX=0.5;entryY=0;entryDx=0;entryDy=0;" edge="1" parent="1" source="VTEPdqiXD7RpA5JGVj0d-58" target="VTEPdqiXD7RpA5JGVj0d-77">
          <mxGeometry relative="1" as="geometry" />
        </mxCell>
        <mxCell id="VTEPdqiXD7RpA5JGVj0d-58" value="Close DB Connection" style="rounded=0;whiteSpace=wrap;html=1;fillColor=#dae8fc;strokeColor=#6c8ebf;" vertex="1" parent="1">
          <mxGeometry x="131" y="1170" width="170" height="60" as="geometry" />
        </mxCell>
        <mxCell id="VTEPdqiXD7RpA5JGVj0d-77" value="Fim" style="ellipse;whiteSpace=wrap;html=1;fillColor=#f8cecc;strokeColor=#b85450;" vertex="1" parent="1">
          <mxGeometry x="-145" y="1330" width="180" height="90" as="geometry" />
        </mxCell>
        <mxCell id="VTEPdqiXD7RpA5JGVj0d-83" value="Button1 (UPDATE)" style="shape=parallelogram;perimeter=parallelogramPerimeter;whiteSpace=wrap;html=1;fixedSize=1;fillColor=#d5e8d4;strokeColor=#82b366;" vertex="1" parent="1">
          <mxGeometry x="-411.5" y="510" width="180" height="60" as="geometry" />
        </mxCell>
        <mxCell id="VTEPdqiXD7RpA5JGVj0d-84" value="Button2 (INSERT)" style="shape=parallelogram;perimeter=parallelogramPerimeter;whiteSpace=wrap;html=1;fixedSize=1;fillColor=#d5e8d4;strokeColor=#82b366;" vertex="1" parent="1">
          <mxGeometry x="-145.25" y="510" width="180" height="60" as="geometry" />
        </mxCell>
        <mxCell id="VTEPdqiXD7RpA5JGVj0d-85" value="Button3 (DELETE)" style="shape=parallelogram;perimeter=parallelogramPerimeter;whiteSpace=wrap;html=1;fixedSize=1;fillColor=#d5e8d4;strokeColor=#82b366;" vertex="1" parent="1">
          <mxGeometry x="126" y="510" width="180" height="60" as="geometry" />
        </mxCell>
        <mxCell id="VTEPdqiXD7RpA5JGVj0d-87" value="if Logs File Exists" style="rhombus;whiteSpace=wrap;html=1;fillColor=#f8cecc;strokeColor=#b85450;" vertex="1" parent="1">
          <mxGeometry x="-705" y="90" width="220" height="80" as="geometry" />
        </mxCell>
        <mxCell id="VTEPdqiXD7RpA5JGVj0d-88" value="INICIO" style="ellipse;whiteSpace=wrap;html=1;fillColor=#f8cecc;strokeColor=#b85450;" vertex="1" parent="1">
          <mxGeometry x="-410" y="-340" width="180" height="90" as="geometry" />
        </mxCell>
      </root>
    </mxGraphModel>
  </diagram>
</mxfile>
